<svg width="195" height="32" viewBox="0 0 195 32" fill="none" xmlns="http://www.w3.org/2000/svg">
<rect width="195" height="32" rx="8" fill="#0475D3"/>
<path d="M56.688 20.128C55.8347 20.128 55.0453 19.9893 54.32 19.712C53.6053 19.424 52.9813 19.024 52.448 18.512C51.9253 17.9893 51.5147 17.3813 51.216 16.688C50.9173 15.9947 50.768 15.232 50.768 14.4C50.768 13.568 50.9173 12.8053 51.216 12.112C51.5147 11.4187 51.9307 10.816 52.464 10.304C52.9973 9.78133 53.6213 9.38133 54.336 9.104C55.0613 8.816 55.8507 8.672 56.704 8.672C57.568 8.672 58.3627 8.82133 59.088 9.12C59.824 9.408 60.448 9.84 60.96 10.416L59.92 11.424C59.4933 10.976 59.0133 10.6453 58.48 10.432C57.9467 10.208 57.376 10.096 56.768 10.096C56.1387 10.096 55.552 10.2027 55.008 10.416C54.4747 10.6293 54.0107 10.928 53.616 11.312C53.2213 11.696 52.912 12.1547 52.688 12.688C52.4747 13.2107 52.368 13.7813 52.368 14.4C52.368 15.0187 52.4747 15.5947 52.688 16.128C52.912 16.6507 53.2213 17.104 53.616 17.488C54.0107 17.872 54.4747 18.1707 55.008 18.384C55.552 18.5973 56.1387 18.704 56.768 18.704C57.376 18.704 57.9467 18.5973 58.48 18.384C59.0133 18.16 59.4933 17.8187 59.92 17.36L60.96 18.368C60.448 18.944 59.824 19.3813 59.088 19.68C58.3627 19.9787 57.5627 20.128 56.688 20.128ZM63.0185 20V11.52H64.4905V13.824L64.3465 13.248C64.5812 12.6613 64.9758 12.2133 65.5305 11.904C66.0852 11.5947 66.7678 11.44 67.5785 11.44V12.928C67.5145 12.9173 67.4505 12.912 67.3865 12.912C67.3332 12.912 67.2798 12.912 67.2265 12.912C66.4052 12.912 65.7545 13.1573 65.2745 13.648C64.7945 14.1387 64.5545 14.848 64.5545 15.776V20H63.0185ZM73.1695 20.096C72.2628 20.096 71.4628 19.9093 70.7695 19.536C70.0868 19.1627 69.5535 18.6507 69.1695 18C68.7962 17.3493 68.6095 16.6027 68.6095 15.76C68.6095 14.9173 68.7908 14.1707 69.1535 13.52C69.5268 12.8693 70.0335 12.3627 70.6735 12C71.3242 11.6267 72.0548 11.44 72.8655 11.44C73.6868 11.44 74.4122 11.6213 75.0415 11.984C75.6708 12.3467 76.1615 12.8587 76.5135 13.52C76.8762 14.1707 77.0575 14.9333 77.0575 15.808C77.0575 15.872 77.0522 15.9467 77.0415 16.032C77.0415 16.1173 77.0362 16.1973 77.0255 16.272H69.8095V15.168H76.2255L75.6015 15.552C75.6122 15.008 75.5002 14.5227 75.2655 14.096C75.0308 13.6693 74.7055 13.3387 74.2895 13.104C73.8842 12.8587 73.4095 12.736 72.8655 12.736C72.3322 12.736 71.8575 12.8587 71.4415 13.104C71.0255 13.3387 70.7002 13.6747 70.4655 14.112C70.2308 14.5387 70.1135 15.0293 70.1135 15.584V15.84C70.1135 16.4053 70.2415 16.912 70.4975 17.36C70.7642 17.7973 71.1322 18.1387 71.6015 18.384C72.0708 18.6293 72.6095 18.752 73.2175 18.752C73.7188 18.752 74.1722 18.6667 74.5775 18.496C74.9935 18.3253 75.3562 18.0693 75.6655 17.728L76.5135 18.72C76.1295 19.168 75.6495 19.5093 75.0735 19.744C74.5082 19.9787 73.8735 20.096 73.1695 20.096ZM84.22 20V18.208L84.14 17.872V14.816C84.14 14.1653 83.948 13.664 83.564 13.312C83.1907 12.9493 82.6253 12.768 81.868 12.768C81.3667 12.768 80.876 12.8533 80.396 13.024C79.916 13.184 79.5107 13.4027 79.18 13.68L78.54 12.528C78.9773 12.176 79.5 11.9093 80.108 11.728C80.7267 11.536 81.372 11.44 82.044 11.44C83.2067 11.44 84.1027 11.7227 84.732 12.288C85.3613 12.8533 85.676 13.7173 85.676 14.88V20H84.22ZM81.436 20.096C80.8067 20.096 80.252 19.9893 79.772 19.776C79.3027 19.5627 78.94 19.2693 78.684 18.896C78.428 18.512 78.3 18.08 78.3 17.6C78.3 17.1413 78.4067 16.7253 78.62 16.352C78.844 15.9787 79.2013 15.68 79.692 15.456C80.1933 15.232 80.8653 15.12 81.708 15.12H84.396V16.224H81.772C81.004 16.224 80.4867 16.352 80.22 16.608C79.9533 16.864 79.82 17.1733 79.82 17.536C79.82 17.952 79.9853 18.288 80.316 18.544C80.6467 18.7893 81.1053 18.912 81.692 18.912C82.268 18.912 82.7693 18.784 83.196 18.528C83.6333 18.272 83.948 17.8987 84.14 17.408L84.444 18.464C84.2413 18.9653 83.884 19.3653 83.372 19.664C82.86 19.952 82.2147 20.096 81.436 20.096ZM91.4305 20.096C90.5772 20.096 89.9158 19.8667 89.4465 19.408C88.9772 18.9493 88.7425 18.2933 88.7425 17.44V9.664H90.2785V17.376C90.2785 17.8347 90.3905 18.1867 90.6145 18.432C90.8492 18.6773 91.1798 18.8 91.6065 18.8C92.0865 18.8 92.4865 18.6667 92.8065 18.4L93.2865 19.504C93.0518 19.7067 92.7692 19.856 92.4385 19.952C92.1185 20.048 91.7825 20.096 91.4305 20.096ZM87.3025 12.784V11.52H92.7105V12.784H87.3025ZM98.6383 20.096C97.7316 20.096 96.9316 19.9093 96.2383 19.536C95.5556 19.1627 95.0223 18.6507 94.6383 18C94.2649 17.3493 94.0783 16.6027 94.0783 15.76C94.0783 14.9173 94.2596 14.1707 94.6223 13.52C94.9956 12.8693 95.5023 12.3627 96.1423 12C96.7929 11.6267 97.5236 11.44 98.3343 11.44C99.1556 11.44 99.8809 11.6213 100.51 11.984C101.14 12.3467 101.63 12.8587 101.982 13.52C102.345 14.1707 102.526 14.9333 102.526 15.808C102.526 15.872 102.521 15.9467 102.51 16.032C102.51 16.1173 102.505 16.1973 102.494 16.272H95.2783V15.168H101.694L101.07 15.552C101.081 15.008 100.969 14.5227 100.734 14.096C100.5 13.6693 100.174 13.3387 99.7583 13.104C99.3529 12.8587 98.8783 12.736 98.3343 12.736C97.8009 12.736 97.3263 12.8587 96.9103 13.104C96.4943 13.3387 96.1689 13.6747 95.9343 14.112C95.6996 14.5387 95.5823 15.0293 95.5823 15.584V15.84C95.5823 16.4053 95.7103 16.912 95.9663 17.36C96.2329 17.7973 96.6009 18.1387 97.0703 18.384C97.5396 18.6293 98.0783 18.752 98.6863 18.752C99.1876 18.752 99.6409 18.6667 100.046 18.496C100.462 18.3253 100.825 18.0693 101.134 17.728L101.982 18.72C101.598 19.168 101.118 19.5093 100.542 19.744C99.9769 19.9787 99.3423 20.096 98.6383 20.096ZM113.452 20.096C112.727 20.096 112.071 19.936 111.484 19.616C110.908 19.2853 110.449 18.8 110.108 18.16C109.777 17.52 109.612 16.72 109.612 15.76C109.612 14.8 109.783 14 110.124 13.36C110.476 12.72 110.94 12.24 111.516 11.92C112.103 11.6 112.748 11.44 113.452 11.44C114.284 11.44 115.02 11.6213 115.66 11.984C116.3 12.3467 116.807 12.8533 117.18 13.504C117.553 14.144 117.74 14.896 117.74 15.76C117.74 16.624 117.553 17.3813 117.18 18.032C116.807 18.6827 116.3 19.1893 115.66 19.552C115.02 19.9147 114.284 20.096 113.452 20.096ZM108.956 20V8.128H110.492V13.776L110.332 15.744L110.428 17.712V20H108.956ZM113.324 18.752C113.868 18.752 114.353 18.6293 114.78 18.384C115.217 18.1387 115.559 17.792 115.804 17.344C116.06 16.8853 116.188 16.3573 116.188 15.76C116.188 15.152 116.06 14.6293 115.804 14.192C115.559 13.744 115.217 13.3973 114.78 13.152C114.353 12.9067 113.868 12.784 113.324 12.784C112.791 12.784 112.305 12.9067 111.868 13.152C111.441 13.3973 111.1 13.744 110.844 14.192C110.599 14.6293 110.476 15.152 110.476 15.76C110.476 16.3573 110.599 16.8853 110.844 17.344C111.1 17.792 111.441 18.1387 111.868 18.384C112.305 18.6293 112.791 18.752 113.324 18.752ZM119.862 20V8.128H121.398V20H119.862ZM127.963 20.096C127.11 20.096 126.352 19.9093 125.691 19.536C125.03 19.1627 124.507 18.6507 124.123 18C123.739 17.3387 123.547 16.592 123.547 15.76C123.547 14.9173 123.739 14.1707 124.123 13.52C124.507 12.8693 125.03 12.3627 125.691 12C126.352 11.6267 127.11 11.44 127.963 11.44C128.806 11.44 129.558 11.6267 130.219 12C130.891 12.3627 131.414 12.8693 131.787 13.52C132.171 14.16 132.363 14.9067 132.363 15.76C132.363 16.6027 132.171 17.3493 131.787 18C131.414 18.6507 130.891 19.1627 130.219 19.536C129.558 19.9093 128.806 20.096 127.963 20.096ZM127.963 18.752C128.507 18.752 128.992 18.6293 129.419 18.384C129.856 18.1387 130.198 17.792 130.443 17.344C130.688 16.8853 130.811 16.3573 130.811 15.76C130.811 15.152 130.688 14.6293 130.443 14.192C130.198 13.744 129.856 13.3973 129.419 13.152C128.992 12.9067 128.507 12.784 127.963 12.784C127.419 12.784 126.934 12.9067 126.507 13.152C126.08 13.3973 125.739 13.744 125.483 14.192C125.227 14.6293 125.099 15.152 125.099 15.76C125.099 16.3573 125.227 16.8853 125.483 17.344C125.739 17.792 126.08 18.1387 126.507 18.384C126.934 18.6293 127.419 18.752 127.963 18.752ZM138.199 23.2C137.421 23.2 136.663 23.088 135.927 22.864C135.202 22.6507 134.61 22.3413 134.151 21.936L134.887 20.752C135.282 21.0933 135.767 21.36 136.343 21.552C136.919 21.7547 137.522 21.856 138.151 21.856C139.154 21.856 139.89 21.6213 140.359 21.152C140.829 20.6827 141.063 19.968 141.063 19.008V17.216L141.223 15.536L141.143 13.84V11.52H142.599V18.848C142.599 20.3413 142.226 21.44 141.479 22.144C140.733 22.848 139.639 23.2 138.199 23.2ZM138.007 19.648C137.186 19.648 136.45 19.4773 135.799 19.136C135.159 18.784 134.647 18.2987 134.263 17.68C133.89 17.0613 133.703 16.3467 133.703 15.536C133.703 14.7147 133.89 14 134.263 13.392C134.647 12.7733 135.159 12.2933 135.799 11.952C136.45 11.6107 137.186 11.44 138.007 11.44C138.733 11.44 139.394 11.5893 139.991 11.888C140.589 12.176 141.063 12.624 141.415 13.232C141.778 13.84 141.959 14.608 141.959 15.536C141.959 16.4533 141.778 17.216 141.415 17.824C141.063 18.432 140.589 18.8907 139.991 19.2C139.394 19.4987 138.733 19.648 138.007 19.648ZM138.183 18.304C138.749 18.304 139.25 18.1867 139.687 17.952C140.125 17.7173 140.466 17.392 140.711 16.976C140.967 16.56 141.095 16.08 141.095 15.536C141.095 14.992 140.967 14.512 140.711 14.096C140.466 13.68 140.125 13.36 139.687 13.136C139.25 12.9013 138.749 12.784 138.183 12.784C137.618 12.784 137.111 12.9013 136.663 13.136C136.226 13.36 135.879 13.68 135.623 14.096C135.378 14.512 135.255 14.992 135.255 15.536C135.255 16.08 135.378 16.56 135.623 16.976C135.879 17.392 136.226 17.7173 136.663 17.952C137.111 18.1867 137.618 18.304 138.183 18.304Z" fill="white"/>
<path d="M7 16C7 21.511 11.489 26 17 26C22.511 26 27 21.511 27 16C27 10.489 22.511 6 17 6C11.489 6 7 10.489 7 16ZM9 16C9 11.5699 12.5699 8 17 8C21.4301 8 25 11.5699 25 16C25 20.4301 21.4301 24 17 24C12.5699 24 9 20.4301 9 16ZM12 17L16 17L16 21L18 21L18 17L22 17L22 15L18 15L18 11L16 11L16 15L12 15L12 17Z" fill="white"/>
</svg>
