<svg width="26" height="25" viewBox="0 0 26 25" fill="none" xmlns="http://www.w3.org/2000/svg">
<path d="M11.7222 1L4.50001 1C2.84315 1 1.50001 2.34315 1.50001 4L1.50001 21C1.50001 22.6569 2.84315 24 4.50001 24L11.7222 24" stroke="white" stroke-width="2" stroke-linecap="round"/>
<path d="M25.2071 13.2071C25.5976 12.8166 25.5976 12.1834 25.2071 11.7929L18.8431 5.42893C18.4526 5.03841 17.8194 5.03841 17.4289 5.42893C17.0384 5.81946 17.0384 6.45262 17.4289 6.84315L23.0858 12.5L17.4289 18.1569C17.0384 18.5474 17.0384 19.1805 17.4289 19.5711C17.8194 19.9616 18.4526 19.9616 18.8431 19.5711L25.2071 13.2071ZM7.88885 13.5L24.5 13.5V11.5L7.88885 11.5V13.5Z" fill="white"/>
</svg>
