<svg width="30" height="30" viewBox="0 0 30 30" fill="none" xmlns="http://www.w3.org/2000/svg">
<path d="M15 1.84882C11.5133 1.85279 8.17056 3.23963 5.70508 5.70511C3.2396 8.17059 1.85276 11.5134 1.84879 15.0001C1.84879 18.5138 3.21754 21.8157 5.70191 24.2982C6.91984 25.5236 8.3688 26.4951 9.96486 27.1565C11.5609 27.8179 13.2724 28.156 15 28.1513C18.4867 28.1473 21.8295 26.7605 24.295 24.295C26.7605 21.8295 28.1473 18.4868 28.1513 15.0001C28.1473 11.5134 26.7605 8.17059 24.295 5.70511C21.8295 3.23963 18.4867 1.85279 15 1.84882ZM15 3.72382C17.9896 3.72729 20.8558 4.91644 22.9697 7.03039C25.0837 9.14434 26.2728 12.0105 26.2763 15.0001C26.2737 17.8353 25.1979 20.5645 23.265 22.6388C21.9891 21.1284 20.3277 19.9918 18.4575 19.3501C19.1068 18.8235 19.6305 18.1588 19.9905 17.4044C20.3506 16.65 20.5379 15.8248 20.5388 14.9888C20.5366 14.2496 20.3885 13.5181 20.1032 12.8362C19.8178 12.1543 19.4007 11.5354 18.8757 11.0149C18.3507 10.4945 17.7282 10.0827 17.0439 9.80328C16.3595 9.52381 15.6267 9.38212 14.8875 9.38632C14.1486 9.38853 13.4174 9.53644 12.7358 9.82159C12.0541 10.1067 11.4354 10.5235 10.915 11.0481C10.3946 11.5727 9.98277 12.1947 9.70308 12.8786C9.42339 13.5626 9.28133 14.2949 9.28504 15.0338C9.28504 16.7757 10.1025 18.3151 11.355 19.3426C9.52287 19.967 7.88873 21.0655 6.61879 22.5263C4.75134 20.4649 3.71918 17.7816 3.72379 15.0001C3.72726 12.0105 4.9164 9.14434 7.03036 7.03039C9.14431 4.91644 12.0105 3.72729 15 3.72382ZM14.9344 11.2613C16.9913 11.2613 18.6619 12.9338 18.6619 15.0338C18.6595 15.9997 18.2823 16.927 17.6097 17.6202C16.9371 18.3134 16.0217 18.7185 15.0563 18.7501C15.0019 18.7501 14.9494 18.7388 14.895 18.7388C14.8482 18.7388 14.8032 18.7482 14.7563 18.7501C13.7864 18.7121 12.8692 18.2984 12.1988 17.5965C11.5284 16.8946 11.1572 15.9595 11.1638 14.9888C11.1638 12.9338 12.8344 11.2613 14.9344 11.2613ZM14.7544 20.6213C14.7994 20.6232 14.8444 20.6363 14.8894 20.6363H14.9344C14.9757 20.6363 15.0094 20.6232 15.0507 20.6213C16.3587 20.6442 17.6464 20.9496 18.8253 21.5166C20.0043 22.0836 21.0468 22.8988 21.8813 23.9063C19.916 25.4417 17.4939 26.2759 15 26.2763C12.4496 26.2815 9.97408 25.4148 7.98379 23.8201C8.82042 22.8366 9.85697 22.0427 11.0244 21.4911C12.1919 20.9396 13.4634 20.643 14.7544 20.6213Z" fill="#231F20"/>
</svg>
